<svg width="25" height="28" viewBox="0 0 25 28" fill="none" xmlns="http://www.w3.org/2000/svg">
<path d="M24.4912 4.0355L20.7975 0.341833C20.5863 0.130667 20.2947 0 19.9715 0H7.04134C6.39734 0 5.87467 0.522667 5.87467 1.16667V5.54167H1.49967C0.855675 5.54167 0.333008 6.06433 0.333008 6.70833V27.0282H0.372674C0.468341 27.5753 0.924508 28 1.49967 28H18.1247C18.7687 28 19.2913 27.4773 19.2913 26.8333V22.6532H23.6663C24.3103 22.6532 24.833 22.1305 24.833 21.4865V4.8615C24.833 4.53833 24.7023 4.24667 24.4912 4.0355ZM16.958 25.6667H2.66634V7.875H5.87467V21.4865C5.87467 22.1305 6.39734 22.6532 7.04134 22.6532H16.958V25.6667ZM22.4997 20.3198H8.20801V2.33333H18.8048V4.8615C18.8048 5.5055 19.3275 6.02817 19.9715 6.02817H22.4997V20.3198Z" fill="#192A3B"/>
<path d="M19.2913 8.071H11.4163C10.7723 8.071 10.2497 8.59367 10.2497 9.23767C10.2497 9.88167 10.7723 10.4043 11.4163 10.4043H19.2913C19.9353 10.4043 20.458 9.88167 20.458 9.23767C20.458 8.59367 19.9353 8.071 19.2913 8.071Z" fill="#192A3B"/>
<path d="M19.2913 11.571H11.4163C10.7723 11.571 10.2497 12.0937 10.2497 12.7377C10.2497 13.3817 10.7723 13.9043 11.4163 13.9043H19.2913C19.9353 13.9043 20.458 13.3817 20.458 12.7377C20.458 12.0937 19.9353 11.571 19.2913 11.571Z" fill="#192A3B"/>
<path d="M14.6247 15.071H11.4163C10.7723 15.071 10.2497 15.5937 10.2497 16.2377C10.2497 16.8817 10.7723 17.4043 11.4163 17.4043H14.6247C15.2687 17.4043 15.7913 16.8817 15.7913 16.2377C15.7913 15.5937 15.2687 15.071 14.6247 15.071Z" fill="#192A3B"/>
</svg>
