<svg width="24" height="28" viewBox="0 0 24 28" fill="none" xmlns="http://www.w3.org/2000/svg">
<path d="M17.8533 19.978C17.5721 18.8755 16.7555 18.0087 15.723 17.6283V11.5255L16.5163 9.93883C16.5968 9.77667 16.6388 9.59817 16.6388 9.41733V5.7505C16.6388 5.48567 16.549 5.229 16.3833 5.02133L12.7165 0.437498C12.2743 -0.116668 11.3363 -0.116668 10.8941 0.437498L7.22847 5.02133C7.06281 5.22783 6.97297 5.48567 6.97297 5.7505V9.41733C6.97297 9.59817 7.01497 9.77667 7.09547 9.93883L7.88881 11.5255V17.6283C6.85514 18.0087 6.03964 18.8755 5.75731 19.978L2.51631 26.3013C2.31097 26.7015 2.35414 27.1857 2.62831 27.5427C2.85347 27.8343 3.19764 28 3.55697 28C3.63747 28 3.71914 27.9918 3.79964 27.9743L10.4555 26.5545L10.7133 27.2428C10.8836 27.6978 11.32 28 11.8065 28C12.293 28 12.7281 27.6978 12.8996 27.2428L13.1178 26.663L19.8331 27.979C19.9066 27.993 19.9813 28 20.056 28C20.4188 28 20.7653 27.8308 20.9881 27.5357C21.2565 27.1787 21.2985 26.6992 21.0943 26.3013L17.8533 19.978ZM9.30631 6.15883L11.8065 3.0345L14.3066 6.15883V9.14083L13.5611 10.633C13.0338 10.4382 12.4446 10.3203 11.8065 10.3203C11.1683 10.3203 10.5791 10.4393 10.053 10.633L9.30747 9.14083L9.30631 6.15883ZM11.8065 12.6537C12.8168 12.6537 13.3628 13.1122 13.3896 13.2487V16.065C12.9066 15.9087 12.3735 15.82 11.8065 15.82C11.2395 15.82 10.7063 15.9087 10.2233 16.065V13.2522C10.2501 13.111 10.7961 12.6537 11.8065 12.6537ZM9.13597 24.4498L5.71531 25.1802L7.90281 20.9137C7.95181 20.818 7.98681 20.7165 8.00781 20.6103C8.02764 20.5112 8.08364 20.4318 8.12797 20.3455L8.40797 21.0922L9.13597 24.4498ZM10.6515 20.4295L10.2735 18.6853C10.3948 18.508 10.9035 18.1522 11.8076 18.1522C12.7095 18.1522 13.217 18.5068 13.3406 18.6818L12.937 20.4983L11.8076 23.5095L10.6515 20.4295ZM14.4268 24.542L15.1758 21.1692L15.4838 20.3478C15.5281 20.4342 15.5841 20.5123 15.604 20.6103C15.625 20.7153 15.66 20.818 15.709 20.9137L17.9198 25.2268L14.4268 24.542Z" fill="#192A3B"/>
<path d="M1.47331 9.667C2.11731 9.667 2.63997 9.14433 2.63997 8.50033V2.9995C2.63997 2.3555 2.11731 1.83283 1.47331 1.83283C0.829307 1.83283 0.306641 2.3555 0.306641 2.9995V8.49917C0.306641 9.14433 0.829307 9.667 1.47331 9.667Z" fill="#192A3B"/>
<path d="M2.63997 14C2.63997 13.356 2.11731 12.8333 1.47331 12.8333C0.829307 12.8333 0.306641 13.356 0.306641 14V15.1667C0.306641 15.8107 0.829307 16.3333 1.47331 16.3333C2.11731 16.3333 2.63997 15.8107 2.63997 15.1667V14Z" fill="#192A3B"/>
<path d="M22.1396 12.1672C21.4956 12.1672 20.973 12.6898 20.973 13.3338V18.8335C20.973 19.4775 21.4956 20.0002 22.1396 20.0002C22.7836 20.0002 23.3063 19.4775 23.3063 18.8335V13.3338C23.3063 12.6887 22.7836 12.1672 22.1396 12.1672Z" fill="#192A3B"/>
<path d="M22.1396 4.8335C21.4956 4.8335 20.973 5.35617 20.973 6.00017V7.833C20.973 8.477 21.4956 8.99967 22.1396 8.99967C22.7836 8.99967 23.3063 8.477 23.3063 7.833V6.00017C23.3063 5.35617 22.7836 4.8335 22.1396 4.8335Z" fill="#192A3B"/>
</svg>
