<svg width="40" height="40" viewBox="0 0 40 40" fill="none" xmlns="http://www.w3.org/2000/svg">
<path d="M5.60655 20.5025C5.53435 20.5025 5.46134 20.4978 5.38834 20.4883C4.50986 20.3706 3.89533 19.5739 4.01486 18.7094C4.77621 13.1876 9.74462 9.65742 17.6469 9.02361C18.531 8.94537 19.3036 9.60052 19.3758 10.4706C19.448 11.3407 18.7909 12.1034 17.9068 12.1745C14.9425 12.4124 7.96199 13.567 7.19343 19.1361C7.08432 19.928 6.39598 20.5025 5.60655 20.5025Z" fill="#9BB2CC"/>
<path d="M25.5394 33.6506C23.4222 33.6506 21.646 31.8629 20.1899 30.3977C19.5208 29.7236 18.603 28.8006 18.1706 28.6631C17.0402 28.3035 15.6691 28.0609 14.2171 27.804C13.6948 27.7115 13.1685 27.6183 12.6478 27.5187C11.7782 27.352 11.2102 26.5222 11.3795 25.6655C11.5487 24.8096 12.3887 24.2509 13.2608 24.4153C13.767 24.5125 14.278 24.6026 14.7851 24.6926C16.2773 24.9566 17.82 25.2308 19.1558 25.6552C20.3423 26.0322 21.3813 27.0785 22.4828 28.1873C23.4463 29.157 24.9104 30.6245 25.6405 30.4799C26.5061 30.3116 27.3533 30.8695 27.5242 31.7262C27.6959 32.5821 27.1295 33.4135 26.2598 33.5818C26.0159 33.6284 25.7752 33.6506 25.5394 33.6506Z" fill="#9BB2CC"/>
<path d="M33.4065 25.1305C33.1538 25.1305 32.8971 25.0712 32.658 24.9471C31.8742 24.5386 31.5749 23.5823 31.9897 22.811C32.1694 22.4767 32.3282 22.1068 32.4638 21.7109C34.0194 17.1818 29.6736 14.5975 27.7337 13.6966C26.9322 13.3244 26.5881 12.3823 26.9659 11.5928C27.3446 10.8026 28.3017 10.4651 29.1016 10.8365C34.6797 13.4263 37.1338 17.9807 35.5044 22.7225C35.3151 23.2773 35.0864 23.8052 34.8257 24.2888C34.5385 24.8246 33.9825 25.1305 33.4065 25.1305Z" fill="#9BB2CC"/>
<path d="M9.96363 29.8588C7.40281 29.8588 5.31934 27.8064 5.31934 25.2838C5.31934 22.7612 7.40281 20.708 9.96363 20.708C12.5245 20.708 14.6087 22.7604 14.6087 25.2838C14.6087 27.8064 12.5253 29.8588 9.96363 29.8588ZM9.96363 23.8692C9.1726 23.8692 8.52838 24.5038 8.52838 25.2838C8.52838 26.063 9.1726 26.6976 9.96363 26.6976C10.7555 26.6976 11.3997 26.063 11.3997 25.2838C11.3997 24.5038 10.7563 23.8692 9.96363 23.8692Z" fill="#1389E6"/>
<path d="M21.3015 15.1507C18.7407 15.1507 16.6572 13.0984 16.6572 10.5758C16.6572 8.05317 18.7407 6 21.3015 6C23.8623 6 25.9466 8.05238 25.9466 10.5758C25.9466 13.0984 23.8631 15.1507 21.3015 15.1507ZM21.3015 9.16194C20.5105 9.16194 19.8663 9.79654 19.8663 10.5766C19.8663 11.3558 20.5105 11.9904 21.3015 11.9904C22.0934 11.9904 22.7376 11.3558 22.7376 10.5766C22.7376 9.79654 22.0942 9.16194 21.3015 9.16194Z" fill="#1389E6"/>
<path d="M31.1121 30.7613C28.5512 30.7613 26.4678 28.7089 26.4678 26.1863C26.4678 23.6637 28.5512 21.6105 31.1121 21.6105C33.6729 21.6105 35.7572 23.6629 35.7572 26.1863C35.7572 28.7089 33.6729 30.7613 31.1121 30.7613ZM31.1121 24.7725C30.321 24.7725 29.6768 25.4071 29.6768 26.1871C29.6768 26.9663 30.321 27.6009 31.1121 27.6009C31.9039 27.6009 32.5481 26.9663 32.5481 26.1871C32.5481 25.4063 31.9039 24.7725 31.1121 24.7725Z" fill="#1389E6"/>
</svg>
