<svg width="28" height="26" viewBox="0 0 28 26" fill="none" xmlns="http://www.w3.org/2000/svg">
<path d="M26.8333 4.83333H19.8333V1.33333C19.8333 0.689333 19.3107 0.166666 18.6667 0.166666H9.33333C8.68933 0.166666 8.16667 0.689333 8.16667 1.33333V4.83333H1.16667C0.522667 4.83333 0 5.356 0 6V24.333C0 24.977 0.522667 25.4997 1.16667 25.4997H26.8333C27.4773 25.4997 28 24.977 28 24.333V6C28 5.356 27.4773 4.83333 26.8333 4.83333ZM10.5 2.5H17.5V4.83333H10.5V2.5ZM2.33333 7.16667H9.33333H18.6667H25.6667V10.6667H2.33333V7.16667ZM2.33333 23.1663V13H25.6667V23.1663H2.33333Z" fill="#192A3B"/>
</svg>
