<svg width="26" height="28" viewBox="0 0 26 28" fill="none" xmlns="http://www.w3.org/2000/svg">
<path d="M25.1544 8.69283C25.1544 6.05267 24.2794 3.9935 22.4804 2.39867C20.6825 0.807333 18.2022 0 15.107 0H4.5382V14.2882H0.845703V17.164H4.5382V21.4713H0.845703V24.3483H4.5382V28H8.39754V24.3483H16.5094V21.4713H8.3987V17.164H15.0475C18.2699 17.164 20.7934 16.408 22.5504 14.9182C24.3027 13.4307 25.1544 11.3948 25.1544 8.69283ZM19.6465 12.8578C18.586 13.8063 17.0589 14.287 15.107 14.287H8.3987V2.877H15.2482C17.0962 2.90617 18.5732 3.4545 19.6477 4.50567C20.728 5.56383 21.2752 6.9825 21.2752 8.72317C21.274 10.5012 20.7269 11.8918 19.6465 12.8578Z" fill="#192A3B"/>
</svg>
